<svg width="41" height="41" viewBox="0 0 41 41" fill="none" xmlns="http://www.w3.org/2000/svg">
<path d="M10.4199 0L-0.00067997 30.2558L30.2551 40.6764L10.4199 0Z" fill="#282620" fill-opacity="0.1"/>
<path d="M37.4956 19.5681L9.1491 33.4071L10.9557 34.0293L36.8725 21.3773L37.4956 19.5681Z" fill="#282620"/>
<path d="M36.2435 23.2023L12.7797 34.6577L14.5862 35.2799L35.6204 25.0115L36.2435 23.2023Z" fill="#282620"/>
<path d="M34.9925 26.8365L16.4103 35.9079L18.2179 36.5305L34.3697 28.6447L34.9925 26.8365Z" fill="#282620"/>
<path d="M33.7404 30.4707L20.0409 37.1584L21.8485 37.781L33.1176 32.2788L33.7404 30.4707Z" fill="#282620"/>
<path d="M32.4893 34.1048L23.6724 38.409L25.48 39.0316L31.8665 35.913L32.4893 34.1048Z" fill="#282620"/>
<path d="M31.2372 37.738L27.3026 39.6596L29.1092 40.2818L30.6141 39.5472L31.2372 37.738Z" fill="#282620"/>
</svg>
