<svg width="328" height="274" viewBox="0 0 328 274" fill="none" xmlns="http://www.w3.org/2000/svg">
  <path fill-rule="evenodd" clip-rule="evenodd" d="M124.176 0L94.0362 194.54L61.4852 0H0V274H38.579V80.2429L71.5318 274H113.326L143.867 77.5029V274H185.661V0H124.176ZM308.385 15.6556C298.446 5.21854 282.23 0 259.737 0H194.612V273.973H262.484C284.192 273.973 300.538 268.494 311.523 257.535C322.508 246.315 328.001 230.138 328.001 209.002V186.693C328.001 172.081 325.516 159.818 320.547 149.903C315.839 139.726 307.6 132.42 295.831 127.985C305.508 123.549 312.57 116.765 317.016 107.632C321.462 98.4999 323.685 86.8887 323.685 72.7986V63.0138C323.685 41.8788 318.585 26.0927 308.385 15.6556ZM237.767 234.834V150.685H256.991C266.93 150.685 273.992 153.034 278.176 157.73C282.623 162.427 284.846 171.168 284.846 183.953V207.828C284.846 218.004 282.884 225.049 278.961 228.963C275.299 232.877 269.807 234.834 262.484 234.834H237.767ZM237.767 111.546V39.139H258.56C266.145 39.139 271.638 41.3569 275.038 45.7927C278.699 50.2284 280.53 57.4039 280.53 67.3192V82.5834C280.53 93.5423 278.176 101.109 273.468 105.284C269.022 109.459 262.745 111.546 254.637 111.546H237.767Z" fill="white"/>
</svg>
