<svg width="1880" height="930" viewBox="0 0 1880 930" fill="none" xmlns="http://www.w3.org/2000/svg">
<path d="M220.863 0C297.145 0 352.139 17.7143 385.845 53.1429C420.438 88.5715 437.735 142.157 437.735 213.9V247.114C437.735 294.943 430.195 334.357 415.116 365.357C400.037 396.357 376.088 419.386 343.269 434.443C383.184 449.5 411.125 474.3 427.091 508.843C443.944 542.5 452.37 584.129 452.37 633.729V709.457C452.37 781.2 433.743 836.114 396.489 874.2C359.235 911.4 303.798 930 230.177 930H0V0H220.863ZM146.355 511.5V797.143H230.177C255.013 797.143 273.64 790.5 286.058 777.214C299.363 763.929 306.015 740.014 306.015 705.471V624.429C306.015 581.029 298.476 551.357 283.397 535.414C269.205 519.471 245.256 511.5 211.55 511.5H146.355ZM146.355 132.857V378.643H203.567C231.064 378.643 252.352 371.557 267.431 357.386C283.397 343.214 291.38 317.529 291.38 280.329V228.514C291.38 194.857 285.171 170.5 272.753 155.443C261.222 140.386 242.595 132.857 216.872 132.857H146.355Z" fill="white"/>
<path d="M470.16 0H616.515V797.143H857.336V930H470.16V0Z" fill="white"/>
<path d="M1395.02 930H1247.34L1222.06 761.271H1042.44L1017.16 930H882.778L1031.79 0H1246.01L1395.02 930ZM1061.07 635.057H1202.1L1131.58 164.743L1061.07 635.057Z" fill="white"/>
<path d="M1547.37 256.414V930H1415.66V0H1599.26L1749.61 556.671V0H1880V930H1729.65L1547.37 256.414Z" fill="white"/>
</svg>
