<svg width="1080" height="859" viewBox="0 0 1080 859" fill="none" xmlns="http://www.w3.org/2000/svg">
<g opacity="0.4">
<path d="M298.438 410.5C333.309 410.5 358.448 418.598 373.855 434.793C389.669 450.988 397.575 475.483 397.575 508.279V523.462C397.575 545.325 394.129 563.342 387.236 577.513C380.343 591.684 369.395 602.211 354.393 609.094C372.639 615.977 385.411 627.313 392.71 643.104C400.414 658.489 404.265 677.519 404.265 700.192V734.809C404.265 767.604 395.751 792.707 378.721 810.117C361.691 827.122 336.35 835.624 302.696 835.624H197.477V410.5H298.438ZM264.379 644.318V774.892H302.696C314.049 774.892 322.564 771.856 328.24 765.783C334.322 759.709 337.363 748.778 337.363 732.987V695.941C337.363 676.102 333.917 662.538 327.024 655.25C320.536 647.962 309.589 644.318 294.181 644.318H264.379ZM264.379 471.232V583.586H290.532C303.101 583.586 312.832 580.347 319.725 573.869C327.024 567.391 330.673 555.65 330.673 538.645V514.959C330.673 499.574 327.835 488.439 322.158 481.557C316.887 474.674 308.372 471.232 296.614 471.232H264.379Z" fill="white"/>
<path d="M412.398 410.5H479.3V774.892H589.385V835.624H412.398V410.5Z" fill="white"/>
<path d="M835.173 835.624H767.662L756.107 758.495H673.999L662.443 835.624H601.015L669.134 410.5H767.054L835.173 835.624ZM682.514 700.799H746.984L714.749 485.808L682.514 700.799Z" fill="white"/>
<path d="M904.817 527.713V835.624H844.605V410.5H928.537L997.264 664.967V410.5H1056.87V835.624H988.141L904.817 527.713Z" fill="white"/>
<path d="M132.781 286.302L175.339 4.53545H262.158V401.39H203.144V116.789L160.019 401.39H101.005L54.4744 120.757V401.39H0V4.53545H86.8186L132.781 286.302Z" fill="white"/>
<path d="M330.613 310.113C330.613 324.476 333.45 334.68 339.124 340.728C345.177 346.397 353.121 349.232 362.957 349.232C372.793 349.232 380.548 346.397 386.222 340.728C392.275 334.68 395.301 324.476 395.301 310.113V95.812C395.301 81.4496 392.275 71.4338 386.222 65.7644C380.548 59.7171 372.793 56.6934 362.957 56.6934C353.121 56.6934 345.177 59.7171 339.124 65.7644C333.45 71.4338 330.613 81.4496 330.613 95.812V310.113ZM268.194 99.7805C268.194 67.6542 276.328 43.087 292.594 26.079C308.861 8.69299 332.315 0 362.957 0C393.599 0 417.053 8.69299 433.32 26.079C449.586 43.087 457.72 67.6542 457.72 99.7805V306.145C457.72 338.271 449.586 363.027 433.32 380.413C417.053 397.421 393.599 405.925 362.957 405.925C332.315 405.925 308.861 397.421 292.594 380.413C276.328 363.027 268.194 338.271 268.194 306.145V99.7805Z" fill="white"/>
<path d="M519.631 113.954V401.39H463.454V4.53545H541.761L605.882 242.081V4.53545H661.492V401.39H597.371L519.631 113.954Z" fill="white"/>
<path d="M666.461 4.53545H859.391V61.2289H794.136V401.39H731.717V61.2289H666.461V4.53545Z" fill="white"/>
</g>
<g opacity="0.4">
<path d="M399.781 831.178L399.787 831.172L399.793 831.166C417.181 813.39 425.765 787.857 425.765 754.809V720.192C425.765 697.367 421.89 678.099 414.061 662.453C407.011 647.214 394.986 636.055 378.109 628.96C391.838 621.942 402.016 611.674 408.585 598.169C415.608 583.731 419.075 565.47 419.075 543.462V528.279C419.075 495.272 411.12 470.332 394.935 453.752C379.119 437.133 353.489 429 318.438 429H217.477H215.977V430.5V855.624V857.124H217.477H322.696C356.586 857.124 382.374 848.56 399.781 831.178ZM347.18 784.721L347.162 784.739L347.144 784.758C341.843 790.43 333.791 793.392 322.696 793.392H285.879V665.818H314.181C329.405 665.818 339.83 669.425 345.903 676.248L345.918 676.264L345.934 676.281C352.403 683.121 355.863 696.16 355.863 715.941V752.987C355.863 768.681 352.822 779.088 347.18 784.721ZM338.73 592.747L338.714 592.762L338.698 592.776C332.165 598.916 322.848 602.086 310.532 602.086H285.879V492.732H316.614C328.084 492.732 336.073 496.078 340.967 502.469L340.984 502.49L341.001 502.511C346.344 508.99 349.173 519.693 349.173 534.959V558.645C349.173 575.521 345.536 586.706 338.73 592.747ZM432.398 429H430.898V430.5V855.624V857.124H432.398H609.385H610.885V855.624V794.892V793.392H609.385H500.8V430.5V429H499.3H432.398ZM855.173 857.124H856.932L856.654 855.387L788.535 430.263L788.333 429H787.054H689.134H687.855L687.652 430.263L619.534 855.387L619.255 857.124H621.015H682.443H683.735L683.927 855.847L695.291 779.995H774.815L786.179 855.847L786.37 857.124H787.662H855.173ZM924.817 857.124H926.317V855.624V558.998L1006.69 856.016L1006.99 857.124H1008.14H1076.87H1078.37V855.624V430.5V429H1076.87H1017.26H1015.76V430.5V673.661L949.985 430.109L949.686 429H948.537H864.605H863.105V430.5V855.624V857.124H864.605H924.817ZM704.256 719.299L734.749 515.924L765.242 719.299H704.256Z" stroke="white" stroke-width="3"/>
<path d="M151.301 306.544L154.265 306.526L196.63 26.0355H280.658V419.89H224.644V136.789L221.661 136.564L178.729 419.89H122.276L75.9542 140.512L72.9744 140.757V419.89H21.5V26.0355H105.543L151.301 306.544ZM358.031 361.754L358.064 361.789L358.099 361.823C364.48 367.8 372.816 370.732 382.957 370.732C393.095 370.732 401.266 367.8 407.282 361.789C413.756 355.321 416.801 344.619 416.801 330.113V115.812C416.801 101.346 413.773 90.8098 407.283 84.7029C401.275 78.321 393.105 75.1934 382.957 75.1934C372.788 75.1934 364.441 78.3325 358.064 84.7033C351.955 90.8072 349.113 101.34 349.113 115.812V330.113C349.113 344.6 351.961 355.286 358.031 361.754ZM313.678 47.1157L313.684 47.1098L313.69 47.1038C329.597 30.1021 352.604 21.5 382.957 21.5C413.31 21.5 436.317 30.1021 452.224 47.1038L452.23 47.1098L452.236 47.1157C468.15 63.7558 476.22 87.897 476.22 119.781V326.145C476.22 358.022 468.153 382.36 452.23 399.383C436.325 416.008 413.315 424.425 382.957 424.425C352.599 424.425 329.589 416.008 313.684 399.383C297.761 382.36 289.694 358.022 289.694 326.145V119.781C289.694 87.897 297.764 63.7558 313.678 47.1157ZM541.079 133.562L538.131 133.954V419.89H484.954V26.0355H560.613L624.434 262.472L627.382 262.081V26.0355H679.992V419.89H618.519L541.079 133.562ZM751.717 79.7289H687.961V26.0355H877.891V79.7289H814.136H812.636V81.2289V419.89H753.217V81.2289V79.7289H751.717Z" stroke="white" stroke-width="3"/>
</g>
</svg>
