<svg width="143" height="52" viewBox="0 0 143 52" fill="none" xmlns="http://www.w3.org/2000/svg">
  <path d="M80.5926 15.1304V29.6186H76.9754V20.1852L70.5806 27.8058H68.1424L61.7684 19.8384V29.6186H58.1548V15.1304H62.641L69.3998 23.5824L76.4913 15.1304H80.5926Z" fill="#282620"/>
  <path d="M85.1187 27.6317C84.3285 27.0113 83.6761 26.2331 83.203 25.3465C82.7249 24.4343 82.4751 23.4196 82.4751 22.3895C82.4751 21.3593 82.7249 20.3446 83.203 19.4324C83.674 18.5465 84.3198 17.7655 85.1013 17.1368C86.7453 15.8027 88.7056 15.1357 90.9824 15.1357H94.3853C96.6621 15.1357 98.619 15.8027 100.256 17.1368C101.045 17.7629 101.693 18.5473 102.161 19.4393C102.646 20.3495 102.9 21.365 102.9 22.3964C102.9 23.4278 102.646 24.4434 102.161 25.3535C101.691 26.235 101.045 27.0104 100.263 27.6317C98.6259 28.9564 96.669 29.6188 94.3923 29.6188H90.9893C88.7114 29.6188 86.7545 28.9564 85.1187 27.6317ZM87.3914 19.9623C86.5287 20.6595 86.098 21.4729 86.0991 22.4025C86.1003 23.3322 86.531 24.1374 87.3914 24.8184C88.3608 25.6074 89.5601 26.0019 90.9893 26.0019H94.3923C95.8134 26.0019 97.0121 25.6074 97.9885 24.8184C98.8454 24.1316 99.2732 23.3263 99.272 22.4025C99.2709 21.4787 98.8407 20.6653 97.9816 19.9623C97.011 19.1674 95.8151 18.7694 94.394 18.7683H90.9893C89.5683 18.7625 88.3689 19.1604 87.3914 19.9623Z" fill="#282620"/>
  <path d="M123.969 15.1304V29.6186H120.412L108.396 19.5996V29.6186H104.786V15.1304H108.694L120.343 24.8427V15.1304H123.969Z" fill="#282620"/>
  <path d="M142.976 15.1304V18.7507H135.924V29.6186H132.309V18.7507H125.247V15.1304H142.976Z" fill="#282620"/>
  <path d="M58.1738 50.3259V35.4751H60.7722L71.6724 35.4646C72.9809 35.4367 74.2571 35.8725 75.2756 36.6952C76.4064 37.6132 76.9718 38.7526 76.9718 40.1134C76.9749 40.8674 76.7726 41.608 76.3867 42.2556V42.273C77.5105 43.1922 78.0731 44.3316 78.0742 45.6911C78.0754 47.0507 77.5129 48.1883 76.3867 49.104C75.37 49.9214 74.0977 50.3535 72.7939 50.3242L58.1738 50.3259ZM61.8798 41.032H71.2997C71.9075 41.0459 72.362 40.9744 72.6668 40.8141C73.0604 40.6154 73.2554 40.3835 73.2554 40.1169C73.2501 40.0271 73.2264 39.9395 73.1856 39.8594C73.1448 39.7793 73.088 39.7085 73.0186 39.6515C72.7344 39.3742 72.358 39.2116 71.9615 39.1948L61.8798 39.1739V41.032ZM74.2969 45.9543C74.4687 45.5883 74.3375 45.2844 73.9033 45.0427C73.5671 44.8462 73.185 44.7422 72.7957 44.7412H61.8798V46.6167H72.2732C72.9419 46.6167 73.4331 46.5522 73.743 46.4197C73.9771 46.3355 74.1735 46.1705 74.2969 45.9543Z" fill="#282620"/>
  <path d="M83.5669 35.4751V46.6132H97.6732V50.3259H79.8696V35.4751H83.5669Z" fill="#282620"/>
  <path d="M112.236 35.4751L122.246 50.3224H117.774L116.267 48.0983H104.74L103.239 50.3259H98.7686L108.779 35.4751H112.236ZM107.246 44.3891H113.768L110.506 39.5504L107.246 44.3891Z" fill="#282620"/>
  <path d="M143 35.4751V50.3259H139.357L127.048 40.0593V50.3259H123.342V35.4751H127.347L139.282 45.4332V35.4751H143Z" fill="#282620"/>
  <path d="M0 0.975098V51.0251H50.0061L0 0.975098Z" fill="#C59781"/>
  <path d="M50.0063 16.1221L15.1357 51.0249H18.1242L50.0063 19.1149V16.1221Z" fill="#282620"/>
  <path d="M50.0061 22.1338L21.1421 51.0249H24.1305L50.0061 25.1266V22.1338Z" fill="#282620"/>
  <path d="M50.0062 28.1455L27.147 51.0248H30.1372L50.0062 31.1366V28.1455Z" fill="#282620"/>
  <path d="M50.006 34.1572L33.1533 51.0247H36.1435L50.006 37.1483V34.1572Z" fill="#282620"/>
  <path d="M50.0064 40.1694L39.1602 51.0252H42.1504L50.0064 43.1605V40.1694Z" fill="#282620"/>
  <path d="M50.0062 46.1792L45.1665 51.0249H48.155L50.0062 49.172V46.1792Z" fill="#282620"/>
</svg>
