<svg width="80" height="80" viewBox="0 0 80 80" fill="none" xmlns="http://www.w3.org/2000/svg">
<rect width="80" height="80" rx="40" fill="white"/>
<g clip-path="url(#clip0_604_5713)">
<path d="M24 24V55.9552H55.989L24 24Z" fill="#C59781"/>
<path d="M55.9999 33.6836L33.6816 55.999H35.5944L55.9999 35.5971V33.6836Z" fill="#282620"/>
<path d="M56.0003 37.5273L37.5264 55.9991H39.4391L56.0003 39.4408V37.5273Z" fill="#282620"/>
<path d="M55.9998 41.3711L41.3691 55.9991H43.283L55.9998 43.2835V41.3711Z" fill="#282620"/>
<path d="M56.0002 45.2148L45.2139 55.9992H47.1277L56.0002 47.1272V45.2148Z" fill="#282620"/>
<path d="M55.9996 49.0576L49.0576 55.9983H50.9714L55.9996 50.97V49.0576Z" fill="#282620"/>
<path d="M55.9999 52.9014L52.9023 55.9995H54.8151L55.9999 54.8148V52.9014Z" fill="#282620"/>
</g>
<defs>
<clipPath id="clip0_604_5713">
<rect width="32" height="31.9997" fill="white" transform="translate(24 24)"/>
</clipPath>
</defs>
</svg>
