<svg width="52" height="57" viewBox="0 0 52 57" fill="none" xmlns="http://www.w3.org/2000/svg">
  <path d="M52 0H0V57H52V0Z" fill="#282620"/>
  <path d="M7.19796 40.7592C7.19796 41.0105 7.52236 41.1091 8.71251 41.1091C10.0217 41.1091 10.187 41.025 10.187 40.8683C10.187 40.7011 10.0975 40.617 8.52293 40.5682C6.39961 40.4997 5.83508 40.154 5.83508 39.3908C5.83508 38.5779 6.58498 38.1543 8.6135 38.1543C10.7726 38.1543 11.452 38.4201 11.452 39.2777C11.452 39.3514 11.452 39.4251 11.4467 39.5092C11.2971 39.4999 11.0317 39.4947 10.7768 39.4947C10.5125 39.4947 10.2471 39.4999 10.0975 39.5092V39.4158C10.0975 39.1645 9.91741 39.0804 8.59349 39.0804C7.37385 39.0804 7.1948 39.1541 7.1948 39.3026C7.1948 39.45 7.28959 39.5144 8.96423 39.5985C10.9485 39.6971 11.5573 39.9826 11.5573 40.8101C11.5573 41.6719 10.8632 42.0861 8.72936 42.0861C6.55022 42.0861 5.80664 41.7269 5.80664 40.9773C5.80664 40.889 5.81191 40.7945 5.82665 40.697C6.00149 40.7167 6.26585 40.7312 6.51652 40.7312C6.7714 40.7312 7.01154 40.726 7.20112 40.7167V40.7592H7.19796Z" fill="white"/>
  <path d="M18.1096 41.9664C18.1296 41.439 18.1444 40.9271 18.1496 40.3167C18.1496 40.0654 18.1696 39.7944 18.1844 39.5338L18.1496 39.5245C18.0243 39.7706 17.8853 40.027 17.7147 40.244L16.395 41.9685H15.7104L14.2316 40.028C14.0663 39.811 13.922 39.5556 13.7967 39.3189L13.7619 39.3283C13.7766 39.5847 13.7967 39.8401 13.8019 40.1215C13.8072 40.8109 13.8219 41.3871 13.8514 41.9685H12.5117C12.5412 41.4369 12.5517 40.8991 12.5517 40.1163C12.5517 39.3085 12.5423 38.7562 12.5265 38.2734H14.535C14.8099 38.6721 15.2196 39.2732 15.7346 40.0073C15.8694 40.1941 16.0147 40.4059 16.1548 40.6229H16.1843C16.3191 40.4008 16.4487 40.189 16.574 40.0073C17.0532 39.3034 17.503 38.6628 17.7736 38.2734H19.5473C19.5325 38.7562 19.5178 39.3075 19.5178 40.1163C19.5178 40.8991 19.523 41.4369 19.5578 41.9685H18.1096V41.9664Z" fill="white"/>
  <path d="M25.3281 41.9655C25.2828 41.8576 25.1627 41.6157 24.9984 41.3156C24.4792 41.3104 23.9536 41.3104 23.5545 41.3104C23.19 41.3104 22.655 41.3104 22.1505 41.3156C21.9809 41.5959 21.8461 41.8327 21.7808 41.9655H20.1367C20.8508 40.9906 22.2358 38.9214 22.5602 38.2715H24.6393C24.9795 38.9214 26.3634 40.9657 27.1081 41.9655H25.3281ZM23.2448 39.5464C23.0752 39.8122 22.8804 40.1227 22.6898 40.4331C23.0047 40.4383 23.3196 40.4383 23.5597 40.4383C23.8199 40.4383 24.159 40.4383 24.4992 40.4331C24.3138 40.1175 24.119 39.8029 23.9442 39.5361C23.7893 39.3045 23.6798 39.1125 23.5945 38.9598L23.2448 39.5464Z" fill="white"/>
  <path d="M31.9443 40.4539C32.8185 40.538 33.2187 40.6761 33.3788 41.2367C33.4683 41.5565 33.5484 41.8233 33.6137 41.9656H32.3698C32.1455 41.9656 32.1054 41.9168 31.9801 41.434C31.8706 41 31.7052 40.9211 30.7963 40.9211H29.0079C29.0174 41.3395 29.0374 41.6998 29.0679 41.9656H27.6387C27.6482 41.4288 27.6587 40.9117 27.6587 40.1185C27.6587 39.3357 27.6534 38.8031 27.6387 38.2715H31.3566C32.711 38.2715 33.3451 38.6214 33.3451 39.3699C33.3451 40.0054 32.9248 40.3303 31.9464 40.4341V40.4539H31.9443ZM30.9195 40.0012C31.7242 40.0012 32.0138 39.8683 32.0138 39.5973C32.0138 39.317 31.7294 39.2225 30.9342 39.2225C30.554 39.2225 29.4903 39.2277 28.9858 39.2422C28.9858 39.4935 28.9858 39.7448 28.991 39.9856C29.3512 40.0012 30.1148 40.0012 30.9195 40.0012Z" fill="white"/>
  <path d="M39.2227 38.2715C39.2132 38.4148 39.2132 38.6307 39.2132 38.8228C39.2132 39.0097 39.2132 39.2412 39.2227 39.399C38.5286 39.3793 37.8387 39.3793 37.2384 39.3793C37.2384 40.6158 37.2436 41.6842 37.2584 41.9707C37.0741 41.9562 36.7634 41.9562 36.5538 41.9562C36.3442 41.9562 36.0493 41.9562 35.8492 41.9707C35.8639 41.6852 35.8744 40.621 35.8744 39.3793C35.2751 39.3793 34.5853 39.3793 33.8901 39.399C33.8954 39.2412 33.8954 39.0149 33.8954 38.8228C33.8954 38.6307 33.8954 38.4189 33.8901 38.2715H39.2227Z" fill="white"/>
  <path d="M8.9714 48.0431C6.64271 48.0431 5.68848 47.225 5.68848 46.0185C5.68848 44.7622 6.74276 44.0137 8.9714 44.0137C11.2 44.0137 12.2543 44.7622 12.2543 46.0185C12.2543 47.226 11.3001 48.0431 8.9714 48.0431ZM10.8504 46.0237C10.8504 45.4174 10.3659 45.0831 8.9714 45.0831C7.57692 45.0831 7.09244 45.4184 7.09244 46.0237C7.09244 46.6197 7.57166 46.9747 8.9714 46.9747C10.3764 46.9747 10.8504 46.6197 10.8504 46.0237Z" fill="white"/>
  <path d="M17.4599 46.363C18.3341 46.4471 18.7343 46.5852 18.8944 47.1459C18.9839 47.4657 19.064 47.7325 19.1293 47.8747H17.8854C17.6611 47.8747 17.6211 47.8259 17.4957 47.3431C17.3862 46.9092 17.2208 46.8303 16.3119 46.8303H14.5235C14.533 47.2487 14.553 47.6089 14.5835 47.8747H13.1543C13.1638 47.338 13.1743 46.8209 13.1743 46.0277C13.1743 45.2449 13.169 44.7122 13.1543 44.1807H16.8722C18.2267 44.1807 18.8607 44.5306 18.8607 45.2791C18.8607 45.9145 18.4405 46.2395 17.462 46.3433V46.363H17.4599ZM16.4351 45.9104C17.2398 45.9104 17.5294 45.7775 17.5294 45.5065C17.5294 45.2262 17.2451 45.1317 16.4499 45.1317C16.0696 45.1317 15.0059 45.1369 14.5014 45.1514C14.5014 45.4027 14.5014 45.6539 14.5066 45.8948C14.8669 45.9104 15.6315 45.9104 16.4351 45.9104Z" fill="white"/>
  <path d="M24.4551 47.8757C24.4098 47.7677 24.2897 47.5258 24.1254 47.2258C23.6061 47.2206 23.0806 47.2206 22.6814 47.2206C22.317 47.2206 21.7819 47.2206 21.2775 47.2258C21.1079 47.5061 20.9731 47.7428 20.9078 47.8757H19.2637C19.9778 46.9008 21.3628 44.8316 21.6872 44.1816H23.7662C24.1064 44.8316 25.4904 46.8759 26.235 47.8757H24.4551ZM22.3718 45.4566C22.2022 45.7224 22.0073 46.0328 21.8167 46.3433C22.1316 46.3484 22.4465 46.3484 22.6867 46.3484C22.9468 46.3484 23.286 46.3484 23.6262 46.3433C23.4408 46.0276 23.2459 45.713 23.0711 45.4462C22.9163 45.2147 22.8067 45.0226 22.7214 44.87L22.3718 45.4566Z" fill="white"/>
  <path d="M32.7781 44.1816C32.7633 44.6354 32.7581 45.2407 32.7581 46.0245C32.7581 46.8375 32.7581 47.3836 32.7676 47.8768H31.3436C31.0487 47.5466 29.4952 46.5021 28.6357 45.9114C28.4261 45.7639 28.2113 45.6155 28.0364 45.4587C28.0564 45.7546 28.0617 46.0494 28.0712 46.3505C28.0765 47.1136 28.0807 47.6504 28.0965 47.8778H26.8115C26.8115 47.3805 26.8263 46.8188 26.8263 46.0308C26.8263 45.2479 26.8263 44.6862 26.8115 44.1837H28.4409C28.6252 44.4204 30.3399 45.6217 31.1045 46.1398C31.2846 46.2581 31.4647 46.3516 31.5995 46.4793C31.5795 46.2083 31.57 45.9477 31.57 45.7452C31.57 45.061 31.5553 44.4454 31.5353 44.1837H32.7781V44.1816Z" fill="white"/>
  <path d="M37.0055 47.9952C34.9022 47.9952 33.6772 47.3993 33.6772 46.0049C33.6772 44.5369 34.9517 44.0645 36.9307 44.0645C38.8191 44.0645 39.9882 44.3697 39.9882 45.4733C39.9882 45.5076 39.9882 45.5471 39.983 45.5813C39.8334 45.5709 39.568 45.5668 39.3131 45.5668C39.0382 45.5668 38.7781 45.572 38.6232 45.5813C38.6232 45.5616 38.6285 45.5419 38.6285 45.5221C38.6285 45.1774 38.1535 45.0684 36.9244 45.0684C35.6247 45.0684 35.0854 45.3301 35.0854 46.0288C35.0854 46.6642 35.5899 47.0037 37.0044 47.0037C38.0587 47.0037 38.5232 46.8459 38.658 46.5116C37.9639 46.5116 37.0286 46.5168 36.4093 46.5313C36.4146 46.4576 36.4146 46.2998 36.4146 46.2261C36.4146 46.0932 36.4146 45.9748 36.4093 45.8814C37.2193 45.8959 38.0482 45.8918 38.6527 45.8918C39.0224 45.8918 39.4974 45.8969 39.9924 45.8814C40.0841 47.2114 39.7439 47.9952 37.0055 47.9952Z" fill="white"/>
  <path d="M46.3132 44.1816C46.3079 44.2896 46.3037 44.462 46.3037 44.6156C46.3037 44.7734 46.3037 44.951 46.3132 45.0538C45.2737 45.0486 43.3947 45.0444 42.4605 45.0444V45.6113C43.5401 45.6113 45.4232 45.6113 46.2584 45.5968C46.2532 45.7888 46.249 46.1834 46.2532 46.39C45.4338 46.3806 43.5295 46.3703 42.4605 46.3703V46.9465C43.3947 46.9465 45.339 46.9413 46.3132 46.9371C46.3037 47.0555 46.3037 47.2424 46.3037 47.4147C46.3037 47.5725 46.3037 47.7542 46.3132 47.8778H41.0312C41.0513 47.3753 41.0513 46.8188 41.0513 46.0308C41.0513 45.2479 41.0513 44.681 41.0312 44.1837H46.3132V44.1816Z" fill="white"/>
  <path d="M12.0979 28.373C11.8083 28.373 11.5355 28.3408 11.2806 28.2744C10.4085 28.046 9.80186 27.422 9.52276 26.4679C7.30991 24.7901 5.99548 22.4208 5.81959 19.7909C5.62685 16.9191 6.78119 14.1003 9.06986 11.8535L9.22153 11.7051L9.27841 11.9075C10.1579 15.0555 14.7184 20.5073 19.4432 24.0612L19.5569 24.1463L19.4558 24.246C16.7901 26.8645 14.0675 28.373 12.0979 28.373ZM9.0983 12.1744C6.96024 14.3464 5.88489 17.0375 6.06815 19.7743C6.23983 22.346 7.53215 24.6623 9.70707 26.2976L9.74077 26.3225L9.75131 26.362C10.003 27.2621 10.5391 27.8259 11.3438 28.0356C11.5818 28.0979 11.8388 28.128 12.1105 28.128C13.9811 28.128 16.591 26.6817 19.1777 24.1692C14.5551 20.663 10.1126 15.3659 9.0983 12.1744Z" fill="white"/>
  <path d="M11.4775 28.3048C9.06453 26.4899 6.73268 23.695 6.27979 22.0732L6.51992 22.0078C6.96123 23.5859 9.25306 26.3228 11.6281 28.1096L11.4775 28.3048Z" fill="white"/>
  <path d="M14.9682 27.5027C10.8532 24.4077 6.87831 19.6463 6.1084 16.8867L6.34854 16.8213C7.10686 19.5363 11.0417 24.2406 15.1199 27.3075L14.9682 27.5027Z" fill="white"/>
  <path d="M9.58417 26.5101C8.30344 25.99 7.49245 25.0524 7.23862 23.7961C6.77309 21.4923 8.20022 18.443 11.0555 15.6387L11.2314 15.8121C8.43509 18.5582 7.03429 21.5245 7.48297 23.7474C7.71889 24.9185 8.47933 25.7948 9.67896 26.2817L9.58417 26.5101Z" fill="white"/>
  <path d="M9.18837 26.6993C9.12096 26.6993 9.06514 26.6775 9.02406 26.6256C8.93875 26.5156 8.79551 26.3328 10.407 24.5003C11.4381 23.3271 12.9295 21.7791 14.7178 20.0234L14.8937 20.1968C10.9115 24.1079 9.36742 26.0255 9.24103 26.446C9.29369 26.4315 9.3927 26.392 9.56859 26.2913L9.69392 26.5031C9.5096 26.608 9.32634 26.6993 9.18837 26.6993Z" fill="white"/>
  <path d="M16.8509 28.8063C15.5659 28.8063 14.2926 28.6267 13.0856 28.2622C12.4189 28.4045 11.8101 28.4128 11.2814 28.2747C10.3967 28.0432 9.78578 27.4046 9.51299 26.4287L9.41504 26.0777L9.70889 26.2989C10.7305 27.0672 11.8828 27.6372 13.1045 28.012C14.8792 27.6133 17.092 26.2231 19.2817 24.0729L19.3586 23.9971L19.445 24.0625C21.4303 25.5555 22.8543 26.302 23.8591 26.6529C24.7301 26.1359 25.5453 25.516 26.2783 24.7955L26.43 24.647L26.4869 24.8495C26.8524 26.1587 26.4953 26.7235 26.1309 26.9655C25.6517 27.2842 24.8786 27.2603 23.8854 26.9218C21.74 28.1678 19.2743 28.8063 16.8509 28.8063ZM13.5574 28.1428C16.8193 29.0067 20.5193 28.5311 23.581 26.8128C22.4151 26.3622 20.9795 25.5192 19.3786 24.3231C17.3469 26.301 15.2868 27.6331 13.5574 28.1428ZM9.8753 26.7246C10.1597 27.4161 10.6526 27.8573 11.3446 28.038C11.7185 28.1356 12.1355 28.1553 12.5895 28.1013C11.6258 27.7649 10.7116 27.307 9.8753 26.7246ZM24.1677 26.7526C25.3399 27.0973 25.8497 26.8564 25.9898 26.763C26.4721 26.4422 26.4395 25.7289 26.2973 25.1194C25.6422 25.7413 24.927 26.2864 24.1677 26.7526Z" fill="white"/>
  <path d="M14.53 29.7954C13.8475 29.7954 12.7605 29.2721 11.4756 28.3055L11.6262 28.1104C13.4546 29.486 14.5099 29.703 14.8586 29.4715C15.0998 29.3106 15.0481 28.9119 14.9628 28.6056L15.203 28.5402C15.3978 29.2358 15.1988 29.5411 14.9986 29.675C14.8765 29.756 14.7185 29.7954 14.53 29.7954Z" fill="white"/>
  <path d="M20.1322 30.0392C18.9936 30.0392 17.1557 29.1473 14.9692 27.5038L15.1198 27.3086C17.7255 29.2678 19.9373 30.1835 20.7525 29.6395C21.2086 29.3363 21.1201 28.6147 20.9663 28.0624L21.2065 27.9969C21.5246 29.1369 21.2117 29.6301 20.8926 29.8429C20.6946 29.9748 20.4387 30.0392 20.1322 30.0392Z" fill="white"/>
  <path d="M16.2094 30.0005C15.9524 30.0005 15.6954 29.9891 15.4405 29.9652C13.0465 29.7451 10.9474 28.5023 9.52979 26.4653L9.73517 26.3262C11.1107 28.302 13.1455 29.5074 15.4648 29.7202C18.2053 29.9725 21.0985 28.818 23.404 26.5535L23.5799 26.7269C21.4345 28.8335 18.7866 30.0005 16.2094 30.0005Z" fill="white"/>
  <path d="M18.1969 30.1873C18.1505 30.1873 18.1042 30.1873 18.0579 30.1863C14.8497 30.1489 11.8248 28.8324 9.54248 26.4798L9.72258 26.3105C11.9586 28.6144 14.9203 29.9039 18.0621 29.9413C18.1074 29.9413 18.1527 29.9423 18.199 29.9423C21.1217 29.9423 23.857 28.8345 25.915 26.8131L26.0909 26.9864C23.9834 29.0546 21.186 30.1873 18.1969 30.1873Z" fill="white"/>
  <path d="M16.8504 28.8065C14.2131 28.8065 11.6242 28.0496 9.55566 26.4943L9.52196 26.4694L9.51143 26.43C8.61513 23.2218 11.5558 17.0079 16.0678 12.5777L16.1447 12.502L16.2311 12.5674C20.9938 16.1493 25.5932 21.6593 26.4853 24.8508L26.5043 24.9193L26.4527 24.9702C23.8807 27.4952 20.3229 28.8065 16.8504 28.8065ZM9.73998 26.3251C14.4195 29.8157 21.789 29.1522 26.2252 24.8477C25.3047 21.7091 20.8263 16.3569 16.1668 12.828C11.7738 17.1782 8.90582 23.2 9.73998 26.3251Z" fill="white"/>
  <path d="M14.9641 28.6055C14.5228 27.0274 12.2321 24.2906 9.85596 22.5038L10.0066 22.3086C12.4195 24.1234 14.7503 26.9184 15.2043 28.5401L14.9641 28.6055Z" fill="white"/>
  <path d="M20.9671 28.0613C20.2088 25.3463 16.2739 20.642 12.1958 17.5751L12.3464 17.3799C16.4614 20.4749 20.4352 25.2363 21.2062 27.9959L20.9671 28.0613Z" fill="white"/>
  <path d="M12.1501 26.9568C11.2012 26.9568 10.3312 26.8124 9.58447 26.5093L9.67926 26.2829C13.2876 27.7469 19.8419 25.3817 24.2929 21.0107L24.4688 21.1841C20.8667 24.7214 15.8902 26.9568 12.1501 26.9568Z" fill="white"/>
  <path d="M9.69418 26.5027L9.56885 26.2909C11.1908 25.3596 16.1526 21.0238 20.6299 16.6279L20.8058 16.8013C16.3159 21.2107 11.332 25.563 9.69418 26.5027Z" fill="white"/>
  <path d="M9.84913 26.7149L9.55527 26.4938C7.32348 24.8149 5.9964 22.4343 5.81946 19.7919C5.62883 16.942 6.76421 14.1439 9.01813 11.9044C8.68425 10.644 9.03498 10.0958 9.39308 9.85699C10.4674 9.14164 13.0236 10.1539 16.2296 12.5658L16.3434 12.6509L16.2422 12.7506C11.7881 17.1257 8.87594 23.2327 9.75012 26.364L9.84913 26.7149ZM10.2715 9.89125C9.84281 9.89125 9.61952 10.0034 9.53316 10.0605C8.99496 10.4187 9.09712 11.2628 9.27722 11.9086L9.29618 11.9771L9.24457 12.028C7.00856 14.2249 5.87949 16.9762 6.06697 19.7753C6.23127 22.236 7.42248 24.464 9.43099 26.0847C8.82538 22.8184 11.667 16.9451 15.9652 12.6758C12.8529 10.3533 11.1404 9.89125 10.2715 9.89125Z" fill="white"/>
  <path d="M9.85523 22.5025C8.02681 21.1279 6.97147 20.9099 6.62285 21.1414C6.38166 21.3023 6.43327 21.701 6.51858 22.0073L6.27845 22.0727C6.0836 21.3771 6.28266 21.0718 6.48277 20.9379C7.04941 20.561 8.36595 21.0729 10.0058 22.3073L9.85523 22.5025Z" fill="white"/>
  <path d="M12.195 17.5766C9.58929 15.6174 7.37962 14.7017 6.56232 15.2457C6.10627 15.5489 6.19475 16.2705 6.34852 16.8228L6.10838 16.8883C5.79031 15.7482 6.10311 15.2551 6.4233 15.0422C7.35751 14.4203 9.57244 15.2945 12.3466 17.3814L12.195 17.5766Z" fill="white"/>
  <path d="M9.52856 26.4657C6.33726 21.8818 7.42104 14.5383 11.9436 10.0957L12.1195 10.2691C7.67697 14.6318 6.60689 21.8351 9.73394 26.3266L9.52856 26.4657Z" fill="white"/>
  <path d="M9.5423 26.481C4.95231 21.7529 4.90492 14.2858 9.43487 9.83594L9.61076 10.0093C5.1756 14.3648 5.2251 21.6781 9.7224 26.3108L9.5423 26.481Z" fill="white"/>
  <path d="M19.3781 24.3223L19.2918 24.2569C14.5291 20.675 9.9296 15.165 9.03751 11.9735L9.01855 11.9049L9.07016 11.8541C13.5948 7.41039 21.175 6.72619 25.9661 10.3299L25.9998 10.3549L26.0104 10.3943C26.9067 13.6025 23.966 19.8164 19.455 24.2455L19.3781 24.3223ZM9.29661 11.9776C10.2171 15.1162 14.6955 20.4684 19.356 23.9974C23.748 19.6471 26.616 13.6253 25.7808 10.5002C21.1012 7.00963 13.7328 7.67307 9.29661 11.9776Z" fill="white"/>
  <path d="M23.1752 19.4432C19.0602 16.3482 15.0864 11.5868 14.3154 8.82713L14.5556 8.76172C15.3139 11.4767 19.2488 16.181 23.3269 19.2469L23.1752 19.4432Z" fill="white"/>
  <path d="M25.5151 14.5167C23.1021 12.7019 20.7703 9.90585 20.3174 8.28514L20.5575 8.21973C20.9988 9.79788 23.2896 12.5347 25.6657 14.3216L25.5151 14.5167Z" fill="white"/>
  <path d="M11.2306 15.813L11.0547 15.6396C15.5699 11.2053 22.2463 8.81734 25.9379 10.3155L25.8431 10.5429C22.2358 9.07793 15.6805 11.442 11.2306 15.813Z" fill="white"/>
  <path d="M14.8942 20.1969L14.7183 20.0235C19.2071 15.6152 24.191 11.2629 25.8288 10.3232L25.9542 10.535C24.3311 11.4663 19.3704 15.8 14.8942 20.1969Z" fill="white"/>
  <path d="M25.2565 27.1915C23.9442 27.1915 21.8198 26.1595 19.291 24.2585L19.1772 24.1734L19.2784 24.0737C23.7325 19.6996 26.6447 13.5926 25.7694 10.4613L25.6715 10.1104L25.9653 10.3315C28.1971 12.0103 29.5242 14.391 29.7011 17.0334C29.8918 19.8833 28.7564 22.6814 26.5025 24.9198C26.8363 26.1803 26.4856 26.7285 26.1275 26.9673C25.9011 27.1178 25.6083 27.1915 25.2565 27.1915ZM19.5564 24.1474C24.2064 27.6151 25.7294 26.9351 25.9895 26.7627C26.5277 26.4045 26.4256 25.5604 26.2455 24.9147L26.2265 24.8461L26.2781 24.7953C28.5141 22.5994 29.6422 19.848 29.4547 17.0489C29.2904 14.5883 28.0992 12.3602 26.0907 10.7395C26.6963 14.0069 23.8546 19.8792 19.5564 24.1474Z" fill="white"/>
  <path d="M28.3387 21.9786C27.2002 21.9786 25.3623 21.0868 23.1758 19.4432L23.3264 19.248C25.9321 21.2072 28.1428 22.1229 28.9591 21.5789C29.4151 21.2757 29.3267 20.5542 29.1729 20.0018L29.413 19.9364C29.7311 21.0764 29.4183 21.5696 29.0992 21.7824C28.9012 21.9132 28.6452 21.9786 28.3387 21.9786Z" fill="white"/>
  <path d="M28.5695 16.0073C27.887 16.0073 26.8001 15.4841 25.5151 14.5175L25.6657 14.3223C27.4942 15.6969 28.5495 15.9149 28.8981 15.6834C29.1393 15.5225 29.0877 15.1238 29.0024 14.8175L29.2425 14.7521C29.4374 15.4477 29.2383 15.753 29.0382 15.8869C28.915 15.9668 28.758 16.0073 28.5695 16.0073Z" fill="white"/>
  <path d="M23.5773 26.7283L23.4014 26.5549C27.8439 22.1922 28.914 14.9889 25.7869 10.4985L25.9923 10.3594C29.1836 14.9432 28.1009 22.2857 23.5773 26.7283Z" fill="white"/>
  <path d="M26.0884 26.9868L25.9125 26.8134C30.3466 22.458 30.2971 15.1456 25.7998 10.513L25.9799 10.3438C30.5699 15.0719 30.6183 22.5379 26.0884 26.9868Z" fill="white"/>
  <path d="M26.3007 25.1187L26.2438 24.9162C25.3644 21.7682 20.8039 16.3164 16.0791 12.7625L15.9653 12.6774L16.0664 12.5777C19.124 9.57513 22.2563 8.03126 24.2406 8.55038C25.1127 8.7788 25.7204 9.40278 25.9984 10.3569C28.2113 12.0347 29.5257 14.404 29.7016 17.0339C29.8933 19.9046 28.74 22.7234 26.4524 24.9702L26.3007 25.1187ZM16.3434 12.6525C20.9661 16.1607 25.4097 21.4568 26.4239 24.6494C28.562 22.4784 29.6363 19.7873 29.453 17.0505C29.2803 14.4787 27.989 12.1624 25.8141 10.5272L25.7804 10.5023L25.7699 10.4628C25.5182 9.56267 24.9821 8.9989 24.1774 8.78918C22.2984 8.29601 19.3062 9.77551 16.3434 12.6525Z" fill="white"/>
  <path d="M29.1727 20.0027C28.4144 17.2877 24.4795 12.5834 20.4014 9.51648L20.552 9.32129C24.667 12.4163 28.6408 17.1777 29.4118 19.9373L29.1727 20.0027Z" fill="white"/>
  <path d="M29.0017 14.8174C28.5604 13.2393 26.2686 10.5025 23.8936 8.7157L24.0442 8.52051C26.4571 10.3354 28.789 13.1303 29.2419 14.752L29.0017 14.8174Z" fill="white"/>
  <path d="M24.4669 21.1858L24.291 21.0124C27.0863 18.2673 28.4871 15.301 28.0384 13.0781C27.8025 11.907 27.0431 11.0307 25.8424 10.5438L25.9372 10.3164C27.2179 10.8366 28.0289 11.7741 28.2828 13.0304C28.7483 15.3332 27.3212 18.3825 24.4669 21.1858Z" fill="white"/>
  <path d="M20.8048 16.801L20.6289 16.6277C24.6101 12.7176 26.1542 10.8 26.2806 10.3795C26.2279 10.394 26.1289 10.4335 25.953 10.5342L25.8277 10.3224C26.1026 10.1646 26.3732 10.041 26.4975 10.1999C26.5828 10.31 26.7261 10.4927 25.1146 12.3252C24.0835 13.4974 22.5932 15.0454 20.8048 16.801Z" fill="white"/>
  <path d="M16.1658 12.8253L16.0794 12.7599C14.0951 11.2669 12.6701 10.5204 11.6653 10.1695C10.7943 10.6865 9.97912 11.3064 9.24501 12.0269L9.09335 12.1754L9.03647 11.9729C8.671 10.6637 9.02805 10.0989 9.39247 9.85697C9.87169 9.53823 10.6448 9.56211 11.638 9.90058C14.9167 7.99644 18.9516 7.51054 22.4357 8.56124C23.1034 8.419 23.7122 8.4107 24.2399 8.54879C25.1246 8.78031 25.7365 9.41883 26.0093 10.3948L26.1073 10.7457L25.8134 10.5246C24.7918 9.75626 23.6395 9.18627 22.4178 8.81146C20.6431 9.21015 18.4303 10.6004 16.2416 12.7495L16.1658 12.8253ZM11.9413 10.0106C13.1072 10.4612 14.5428 11.3043 16.1437 12.5003C18.1743 10.5225 20.2344 9.19042 21.9638 8.68168C18.703 7.81786 15.003 8.29338 11.9413 10.0106ZM10.2709 9.89019C9.8422 9.89019 9.61891 10.0023 9.53255 10.0594C9.05017 10.3802 9.08282 11.0935 9.225 11.703C9.88011 11.0811 10.5963 10.537 11.3557 10.0698C10.8996 9.93588 10.5437 9.89019 10.2709 9.89019ZM22.9328 8.72217C23.8955 9.05856 24.8097 9.51643 25.647 10.0989C25.3626 9.40741 24.8697 8.96616 24.1777 8.7855C23.8038 8.68791 23.3857 8.66818 22.9328 8.72217Z" fill="white"/>
  <path d="M20.4011 9.51602C17.7954 7.55685 15.5836 6.64112 14.7684 7.18516C14.3124 7.48833 14.4008 8.20991 14.5546 8.76225L14.3145 8.82766C13.9964 7.68767 14.3092 7.19451 14.6283 6.98167C15.5625 6.35976 17.7775 7.23396 20.5517 9.32083L20.4011 9.51602Z" fill="white"/>
  <path d="M23.8943 8.71397C22.0659 7.33934 21.0095 7.12131 20.6619 7.35388C20.4207 7.51481 20.4723 7.91349 20.5576 8.21977L20.3175 8.28518C20.1227 7.58956 20.3217 7.28432 20.5218 7.15038C21.0874 6.77454 22.404 7.28535 24.0449 8.51982L23.8943 8.71397Z" fill="white"/>
  <path d="M25.788 10.497C24.4125 8.52127 22.3777 7.31587 20.0584 7.10303C17.3169 6.85178 14.4247 8.00526 12.1202 10.2697L11.9443 10.0963C14.3025 7.781 17.2684 6.60156 20.0816 6.85904C22.4756 7.07915 24.5747 8.32193 25.9934 10.359L25.788 10.497Z" fill="white"/>
  <path d="M25.8013 10.5135C23.5642 8.20966 20.6036 6.92016 17.4618 6.88278C14.4822 6.84956 11.6996 7.9584 9.60997 10.011L9.43408 9.83762C11.5384 7.77048 14.3358 6.63672 17.3249 6.63672C17.3712 6.63672 17.4176 6.63672 17.4639 6.63776C20.6721 6.67513 23.697 7.99163 25.9804 10.3443L25.8013 10.5135Z" fill="white"/>
  <path d="M17.7235 30.3153C17.5076 30.3153 17.2801 30.3059 17.1084 30.2935C16.8198 30.2738 16.4164 30.2322 15.8761 30.1658C15.558 30.1263 15.162 30.0402 14.9198 29.9789C14.5217 29.8772 13.9887 29.7183 13.5927 29.5823C13.2504 29.465 12.5047 29.1587 11.8581 28.7932C11.5589 28.625 10.7648 28.1765 9.95065 27.4892C9.54095 27.1435 8.91954 26.587 8.2539 25.7491C8.03377 25.4729 7.8642 25.231 7.86315 25.2289C7.69253 24.9849 7.69253 24.9849 7.43238 24.5769C7.23121 24.2613 7.01951 23.847 6.92894 23.6705C6.79412 23.4058 6.65194 23.0922 6.56557 22.868C6.50133 22.7019 6.43497 22.516 6.37073 22.3312C6.27804 22.0862 6.19589 21.836 6.12532 21.5826C6.02948 21.2151 5.90414 20.7302 5.85254 20.3596C5.80409 20.0149 5.75037 19.6214 5.7251 19.3182C5.71456 19.1978 5.68191 18.7783 5.69034 18.4502L5.69139 18.3983C5.69876 18.0962 5.70824 17.7204 5.73036 17.4307C5.75037 17.1774 5.7925 16.8285 5.83779 16.543C6.00947 15.4757 6.28647 14.7043 6.29805 14.6721C6.3802 14.4468 6.53187 14.0263 6.65931 13.7294C6.75199 13.5134 6.90261 13.1998 7.0627 12.8915C7.29967 12.4336 7.66409 11.8553 7.96847 11.4504C8.35817 10.9334 8.85635 10.3571 9.23867 9.98441C9.81795 9.4196 10.0444 9.25037 10.7985 8.68972C11.0608 8.49453 11.4315 8.27442 11.6864 8.12699C11.9191 7.99202 12.2477 7.81967 12.5226 7.68885C12.7881 7.56219 13.1662 7.4023 13.4853 7.28186C13.6664 7.21334 13.8855 7.14377 14.0983 7.07733C14.191 7.04826 14.2805 7.02022 14.3605 6.99323C14.6586 6.89563 15.0525 6.81257 15.398 6.74301C15.5854 6.70564 15.8108 6.67241 16.0288 6.64126C16.1215 6.62777 16.21 6.61531 16.2911 6.60285C16.6229 6.55094 17.061 6.53121 17.4065 6.52083C17.7024 6.51045 18.0489 6.51356 18.288 6.52706C18.6335 6.54678 19.1148 6.59143 19.5119 6.64126C20.0753 6.71187 20.5788 6.84268 21.1107 6.98181C21.5077 7.08563 22.0344 7.26836 22.4209 7.43552C22.779 7.59126 23.0465 7.71273 23.2371 7.80929C23.4783 7.93076 23.8006 8.1083 24.0387 8.25158C24.2862 8.40005 24.5695 8.58278 24.7601 8.71775C25.0445 8.92021 25.1403 8.98769 25.5669 9.33551C25.6132 9.37392 25.8565 9.57638 26.1757 9.88058C26.419 10.1132 26.6222 10.3322 26.7202 10.4371C26.8381 10.5648 27.1014 10.8659 27.2668 11.0777C27.5343 11.4182 27.5817 11.4888 27.8482 11.875C28.0483 12.1668 28.4022 12.7648 28.5939 13.1625C28.7413 13.4677 28.9878 13.9796 29.1889 14.5859C29.408 15.2441 29.5586 15.8235 29.6376 16.3073C29.7177 16.7974 29.8082 17.3507 29.8251 18.145C29.8441 19.0161 29.7651 19.7034 29.7166 20.0356C29.6671 20.3751 29.5755 21.0085 29.3027 21.8983C29.1384 22.435 28.8414 23.1244 28.6213 23.6082C28.5201 23.8304 28.3579 24.1263 28.1252 24.5125C28.0241 24.6818 27.8903 24.877 27.7618 25.0649C27.706 25.148 27.6512 25.2269 27.6028 25.3006C27.4216 25.5736 27.1457 25.9069 26.9477 26.1281L26.9119 26.1685C26.6738 26.4343 26.3789 26.7645 26.1209 26.9929C26.063 27.0448 25.9998 27.1009 25.9345 27.1601C25.7575 27.3189 25.5574 27.4985 25.3889 27.6335C25.1561 27.8204 24.8128 28.0883 24.5326 28.2637L24.3399 28.3852C24.1398 28.5119 23.9123 28.6551 23.7248 28.76C23.4352 28.9209 23.056 29.112 22.7821 29.2355C21.8142 29.6716 20.979 29.8834 20.8874 29.9062C20.3176 30.0464 19.5719 30.172 19.1053 30.2364C18.8515 30.2717 18.5334 30.2841 18.2522 30.2956C18.1595 30.2997 18.0711 30.3028 17.9889 30.307C17.9078 30.3132 17.8162 30.3153 17.7235 30.3153ZM8.20019 25.2705C8.26654 25.3598 8.3529 25.475 8.4498 25.5965C9.1028 26.4177 9.71157 26.9628 10.1128 27.3023C10.9091 27.9751 11.6885 28.4143 11.9813 28.5793C12.6143 28.9365 13.3399 29.2355 13.6749 29.3497C14.0646 29.4826 14.5901 29.6394 14.983 29.7401C15.2926 29.819 15.6549 29.8906 15.9077 29.9218C16.4428 29.9882 16.8419 30.0298 17.1263 30.0485C17.3643 30.0651 17.713 30.0775 17.9784 30.064C18.0616 30.0599 18.1511 30.0557 18.2438 30.0526C18.5187 30.0412 18.8315 30.0287 19.0727 29.9955C19.5329 29.9322 20.2691 29.8086 20.8295 29.6705C20.919 29.6487 21.7342 29.4421 22.6821 29.0144C22.9507 28.8929 23.3225 28.706 23.6058 28.5482C23.788 28.4475 24.0113 28.3053 24.2093 28.1807L24.4031 28.0581C24.6727 27.89 25.0076 27.6273 25.2362 27.4456C25.3994 27.3158 25.5964 27.1383 25.7712 26.9815C25.8376 26.9223 25.9008 26.8652 25.9597 26.8133C26.2073 26.5942 26.4979 26.2703 26.7307 26.0087L26.7665 25.9682C26.9582 25.7532 27.2257 25.4304 27.3995 25.1677C27.448 25.094 27.5038 25.013 27.5606 24.9299C27.687 24.7441 27.8176 24.552 27.9156 24.389C28.1431 24.0111 28.3011 23.7235 28.398 23.5096C28.6149 23.032 28.9067 22.353 29.0678 21.8287C29.3353 20.9566 29.4259 20.3357 29.4744 20.0024C29.5218 19.6774 29.5987 19.0047 29.5797 18.1512C29.5628 17.3746 29.4744 16.8295 29.3954 16.3488C29.3185 15.8764 29.17 15.3106 28.9551 14.6638C28.7582 14.073 28.5159 13.5695 28.3716 13.2694C28.1842 12.8811 27.8398 12.2987 27.647 12.0183C27.3816 11.6331 27.3353 11.5646 27.072 11.2293C26.9098 11.0227 26.6538 10.7288 26.539 10.6042C26.4432 10.5004 26.2431 10.2855 26.005 10.0571C25.6922 9.75807 25.4552 9.56184 25.411 9.52551C24.9908 9.18288 24.896 9.1154 24.6169 8.91709C24.4315 8.78524 24.1545 8.60666 23.9123 8.46131C23.6795 8.32114 23.3635 8.14776 23.1266 8.02836C22.9401 7.93388 22.6779 7.81448 22.324 7.66082C21.948 7.49782 21.4361 7.32028 21.0496 7.21957C20.5261 7.08252 20.0311 6.95378 19.4834 6.88525C19.0906 6.83645 18.6177 6.79181 18.2764 6.77208C18.0437 6.75859 17.7066 6.75651 17.418 6.76585C17.08 6.77727 16.6513 6.79596 16.3332 6.8458C16.2521 6.85826 16.1615 6.87175 16.0689 6.88525C15.854 6.9164 15.6318 6.94858 15.4517 6.98492C15.2073 7.03476 14.7523 7.12612 14.4427 7.22787C14.3605 7.25487 14.271 7.2829 14.1773 7.31301C13.9677 7.37946 13.7507 7.44694 13.5769 7.51339C13.2641 7.63175 12.8934 7.78852 12.6332 7.91207C12.3678 8.03874 12.0382 8.21005 11.8149 8.33983C11.5642 8.48519 11.2029 8.7001 10.9512 8.88699C10.2076 9.44037 9.9833 9.60753 9.41666 10.1599C9.04277 10.5253 8.55302 11.0891 8.17069 11.5978C7.87368 11.9924 7.51875 12.5582 7.28703 13.0047C7.12905 13.3089 6.9816 13.6162 6.89102 13.8269C6.76674 14.1177 6.61613 14.533 6.53503 14.7562C6.52344 14.7873 6.25487 15.538 6.08635 16.5824C6.04212 16.8576 5.99999 17.2064 5.98103 17.4504C5.95891 17.7339 5.95049 18.1066 5.94311 18.4056L5.94206 18.4575C5.93679 18.6704 5.94943 18.9849 5.97576 19.2985C6.00315 19.6193 6.06529 20.0626 6.10215 20.3263C6.15165 20.6835 6.27488 21.1601 6.36546 21.5089C6.36651 21.5141 6.36757 21.5183 6.36967 21.5234C6.42971 21.7155 6.51291 21.972 6.60138 22.2305C7.19224 23.7993 8.23599 25.1781 9.65259 26.2589C9.67155 26.2734 9.68945 26.2869 9.70841 26.3014L9.5578 26.4966C9.05962 26.1208 8.60673 25.7117 8.20019 25.2705Z" fill="white"/>
</svg>
