<svg width="395" height="294" viewBox="0 0 395 294" fill="none" xmlns="http://www.w3.org/2000/svg">
<path d="M47.6 101.4L62.6 1.99999H93.2V142H72.4V41.6L57.2 142H36.4L20 43V142H0.8V1.99999H31.4L47.6 101.4ZM129.403 109.8C129.403 114.867 130.403 118.467 132.403 120.6C134.536 122.6 137.336 123.6 140.803 123.6C144.27 123.6 147.003 122.6 149.003 120.6C151.136 118.467 152.203 114.867 152.203 109.8V34.2C152.203 29.1333 151.136 25.6 149.003 23.6C147.003 21.4667 144.27 20.4 140.803 20.4C137.336 20.4 134.536 21.4667 132.403 23.6C130.403 25.6 129.403 29.1333 129.403 34.2V109.8ZM107.403 35.6C107.403 24.2667 110.27 15.6 116.003 9.59999C121.736 3.46666 130.003 0.399999 140.803 0.399999C151.603 0.399999 159.87 3.46666 165.603 9.59999C171.336 15.6 174.203 24.2667 174.203 35.6V108.4C174.203 119.733 171.336 128.467 165.603 134.6C159.87 140.6 151.603 143.6 140.803 143.6C130.003 143.6 121.736 140.6 116.003 134.6C110.27 128.467 107.403 119.733 107.403 108.4V35.6ZM208.1 40.6V142H188.3V1.99999H215.9L238.5 85.8V1.99999H258.1V142H235.5L208.1 40.6ZM267.852 1.99999H335.852V22H312.852V142H290.852V22H267.852V1.99999ZM127.364 154C138.831 154 147.097 156.667 152.164 162C157.364 167.333 159.964 175.4 159.964 186.2V191.2C159.964 198.4 158.831 204.333 156.564 209C154.297 213.667 150.697 217.133 145.764 219.4C151.764 221.667 155.964 225.4 158.364 230.6C160.897 235.667 162.164 241.933 162.164 249.4V260.8C162.164 271.6 159.364 279.867 153.764 285.6C148.164 291.2 139.831 294 128.764 294H94.1641V154H127.364ZM116.164 231V274H128.764C132.497 274 135.297 273 137.164 271C139.164 269 140.164 265.4 140.164 260.2V248C140.164 241.467 139.031 237 136.764 234.6C134.631 232.2 131.031 231 125.964 231H116.164ZM116.164 174V211H124.764C128.897 211 132.097 209.933 134.364 207.8C136.764 205.667 137.964 201.8 137.964 196.2V188.4C137.964 183.333 137.031 179.667 135.164 177.4C133.431 175.133 130.631 174 126.764 174H116.164ZM175.414 154H197.414V274H233.614V294H175.414V154ZM314.778 294H292.578L288.778 268.6H261.778L257.978 294H237.778L260.178 154H292.378L314.778 294ZM264.578 249.6H285.778L275.178 178.8L264.578 249.6ZM344.623 192.6V294H324.823V154H352.423L375.023 237.8V154H394.623V294H372.023L344.623 192.6Z" fill="#282620"/>
</svg>
